<svg width="72" height="72" viewBox="0 0 72 72" fill="none" xmlns="http://www.w3.org/2000/svg">
<g filter="url(#filter0_d_2_846)">
<path d="M16 20.5C16 13.5964 21.5964 8 28.5 8H43.5C50.4036 8 56 13.5964 56 20.5V35.5C56 42.4036 50.4036 48 43.5 48H28.5C21.5964 48 16 42.4036 16 35.5V20.5Z" fill="url(#paint0_linear_2_846)"/>
<path fill-rule="evenodd" clip-rule="evenodd" d="M27.25 19.25H44.75C45.0815 19.25 45.3995 19.3817 45.6339 19.6161C45.8683 19.8505 46 20.1685 46 20.5V31.75C46 32.0815 45.8683 32.3995 45.6339 32.6339C45.3995 32.8683 45.0815 33 44.75 33H36.625V35.5H40.4243C40.4999 35.5 40.5748 35.5149 40.6446 35.5438C40.7145 35.5727 40.7779 35.6152 40.8314 35.6686C40.8848 35.7221 40.9273 35.7855 40.9562 35.8554C40.9851 35.9252 41 36.0001 41 36.0757V36.1743C41 36.327 40.9393 36.4734 40.8314 36.5814C40.7234 36.6893 40.577 36.75 40.4243 36.75H31.5757C31.423 36.75 31.2766 36.6893 31.1686 36.5814C31.0607 36.4734 31 36.327 31 36.1743V36.0757C31 36.0001 31.0149 35.9252 31.0438 35.8554C31.0727 35.7855 31.1152 35.7221 31.1686 35.6686C31.2221 35.6152 31.2855 35.5727 31.3554 35.5438C31.4252 35.5149 31.5001 35.5 31.5757 35.5H35.375V33H27.25C26.9185 33 26.6005 32.8683 26.3661 32.6339C26.1317 32.3995 26 32.0815 26 31.75V20.5C26 20.1685 26.1317 19.8505 26.3661 19.6161C26.6005 19.3817 26.9185 19.25 27.25 19.25ZM33.157 30.8416C32.8231 31.064 32.5623 31.38 32.4072 31.75H39.5928C39.4377 31.38 39.1769 31.064 38.843 30.8416C38.5091 30.6193 38.117 30.5004 37.7158 30.5H34.2842C33.8831 30.5004 33.4909 30.6193 33.157 30.8416ZM40.8952 31.75H44.75V20.5H27.25V31.75H31.1047C31.2788 31.0378 31.6866 30.4044 32.263 29.9512C32.8394 29.498 33.551 29.2511 34.2842 29.25H37.7158C38.449 29.2511 39.1607 29.498 39.7371 29.9512C40.3134 30.4044 40.7212 31.0378 40.8952 31.75ZM37.7362 27.4733C37.2223 27.8167 36.6181 28 36 28C35.1712 28 34.3763 27.6708 33.7903 27.0847C33.2042 26.4987 32.875 25.7038 32.875 24.875C32.875 24.2569 33.0583 23.6527 33.4017 23.1388C33.745 22.6249 34.2331 22.2244 34.8041 21.9879C35.3751 21.7514 36.0035 21.6895 36.6097 21.81C37.2158 21.9306 37.7727 22.2283 38.2097 22.6653C38.6467 23.1023 38.9444 23.6592 39.065 24.2653C39.1855 24.8715 39.1236 25.4999 38.8871 26.0709C38.6506 26.6419 38.2501 27.13 37.7362 27.4733ZM37.0417 23.316C36.7334 23.11 36.3708 23 36 23C35.5029 23.0006 35.0263 23.1983 34.6748 23.5498C34.3233 23.9013 34.1256 24.3779 34.125 24.875C34.125 25.2458 34.235 25.6084 34.441 25.9167C34.647 26.225 34.9399 26.4654 35.2825 26.6073C35.6251 26.7492 36.0021 26.7863 36.3658 26.714C36.7295 26.6416 37.0636 26.4631 37.3258 26.2008C37.588 25.9386 37.7666 25.6045 37.839 25.2408C37.9113 24.8771 37.8742 24.5001 37.7323 24.1575C37.5904 23.8149 37.35 23.522 37.0417 23.316Z" fill="white"/>
</g>
<defs>
<filter id="filter0_d_2_846" x="0" y="0" width="72" height="72" filterUnits="userSpaceOnUse" color-interpolation-filters="sRGB">
<feFlood flood-opacity="0" result="BackgroundImageFix"/>
<feColorMatrix in="SourceAlpha" type="matrix" values="0 0 0 0 0 0 0 0 0 0 0 0 0 0 0 0 0 0 127 0" result="hardAlpha"/>
<feOffset dy="8"/>
<feGaussianBlur stdDeviation="8"/>
<feComposite in2="hardAlpha" operator="out"/>
<feColorMatrix type="matrix" values="0 0 0 0 0.447059 0 0 0 0 0.498039 0 0 0 0 0.588235 0 0 0 0.32 0"/>
<feBlend mode="normal" in2="BackgroundImageFix" result="effect1_dropShadow_2_846"/>
<feBlend mode="normal" in="SourceGraphic" in2="effect1_dropShadow_2_846" result="shape"/>
</filter>
<linearGradient id="paint0_linear_2_846" x1="56" y1="48" x2="56" y2="8" gradientUnits="userSpaceOnUse">
<stop stop-color="#0095FF"/>
<stop offset="1" stop-color="#29DBFF"/>
</linearGradient>
</defs>
</svg>
