<svg width="72" height="72" viewBox="0 0 72 72" fill="none" xmlns="http://www.w3.org/2000/svg">
<g filter="url(#filter0_d_2_849)">
<rect x="16" y="8" width="40" height="40" rx="12.5" fill="url(#paint0_linear_2_849)"/>
<path fill-rule="evenodd" clip-rule="evenodd" d="M47.2499 19.25C47.2499 18.5596 46.6903 18 45.9999 18H42.0075V23.2869L45.9757 23.2873C46.4398 23.2873 46.8755 23.4124 47.2499 23.6308V19.25Z" fill="#6E93CE"/>
<path fill-rule="evenodd" clip-rule="evenodd" d="M41.3607 18H36.2569V23.2864L41.3607 23.2869V18Z" fill="#8FC996"/>
<path fill-rule="evenodd" clip-rule="evenodd" d="M35.6045 23.2863V18H30.5062V20.5011C32.0111 20.5317 33.4329 21.2015 34.4463 22.3715L35.19 23.2863L35.6045 23.2863Z" fill="#FFD16E"/>
<path fill-rule="evenodd" clip-rule="evenodd" d="M29.8538 20.5H26.0242C25.5601 20.5 25.1245 20.6251 24.75 20.8435V19.25C24.75 18.5596 25.3096 18 26 18H29.8538V20.5Z" fill="#FF847B"/>
<path d="M47.25 25.7998C47.25 25.1002 46.6763 24.5373 45.9758 24.5373H34.5962L33.4764 23.1601C32.7042 22.2692 31.5844 21.75 30.3984 21.75H26.0242C25.3237 21.75 24.75 22.3129 24.75 23.0125V37.9875C24.75 38.6871 25.3237 39.25 26.0242 39.25H45.9758C46.6818 39.25 47.25 38.6816 47.25 37.9875C47.25 37.9875 47.25 37.9875 47.25 37.982V25.7998Z" fill="url(#paint1_linear_2_849)"/>
<path fill-rule="evenodd" clip-rule="evenodd" d="M35.1891 28.7569C35.3293 28.3294 35.7051 28.0347 36.1426 28.0058L36.7428 28L34.4711 34.7488C34.3309 35.1764 33.9551 35.4711 33.5176 35.5H32.9511L35.1891 28.7569ZM37.528 35.5H36.9671L39.5417 28H41L38.4816 34.7488C38.3413 35.1764 37.9655 35.4711 37.528 35.5ZM37.7244 28.7685C37.7244 28.4796 37.5617 28.2138 37.3037 28.0925L36.2604 31.126V34.772C36.2604 34.98 36.3445 35.1764 36.4904 35.3209L37.7187 31.7385L37.7244 28.7685ZM32.25 28.0058H33.7027V31.5882L32.4463 35.2689C32.3229 35.1302 32.25 34.9453 32.25 34.7546V28.0058Z" fill="white"/>
</g>
<defs>
<filter id="filter0_d_2_849" x="0" y="0" width="72" height="72" filterUnits="userSpaceOnUse" color-interpolation-filters="sRGB">
<feFlood flood-opacity="0" result="BackgroundImageFix"/>
<feColorMatrix in="SourceAlpha" type="matrix" values="0 0 0 0 0 0 0 0 0 0 0 0 0 0 0 0 0 0 127 0" result="hardAlpha"/>
<feOffset dy="8"/>
<feGaussianBlur stdDeviation="8"/>
<feComposite in2="hardAlpha" operator="out"/>
<feColorMatrix type="matrix" values="0 0 0 0 0.447059 0 0 0 0 0.498039 0 0 0 0 0.588235 0 0 0 0.32 0"/>
<feBlend mode="normal" in2="BackgroundImageFix" result="effect1_dropShadow_2_849"/>
<feBlend mode="normal" in="SourceGraphic" in2="effect1_dropShadow_2_849" result="shape"/>
</filter>
<linearGradient id="paint0_linear_2_849" x1="56" y1="48" x2="56" y2="8" gradientUnits="userSpaceOnUse">
<stop stop-color="#EDF3F7"/>
<stop offset="1" stop-color="white"/>
</linearGradient>
<linearGradient id="paint1_linear_2_849" x1="47.25" y1="39.25" x2="47.25" y2="21.75" gradientUnits="userSpaceOnUse">
<stop stop-color="#00B2FF"/>
<stop stop-color="#00A4FF"/>
<stop stop-color="#0099FF"/>
<stop stop-color="#0092FF"/>
<stop stop-color="#0090FF"/>
<stop offset="0.06" stop-color="#0095FF"/>
<stop offset="0.32" stop-color="#00A5FF"/>
<stop offset="0.61" stop-color="#00AFFF"/>
<stop offset="1" stop-color="#00B2FF"/>
</linearGradient>
</defs>
</svg>
